<?xml version="1.0" standalone="no"?>
<!DOCTYPE svg PUBLIC "-//W3C//DTD SVG 20010904//EN"
 "http://www.w3.org/TR/2001/REC-SVG-20010904/DTD/svg10.dtd">
<svg version="1.0" xmlns="http://www.w3.org/2000/svg"
 width="2048.000000pt" height="2048.000000pt" viewBox="0 0 2048.000000 2048.000000"
 preserveAspectRatio="xMidYMid meet">
<metadata>
Created by potrace 1.14, written by Peter Selinger 2001-2017
</metadata>
<g transform="translate(0.000000,2048.000000) scale(0.100000,-0.100000)"
fill="#000000" stroke="none">
<path d="M15190 18267 c-30 -19 -34 -19 -64 -4 -31 14 -35 14 -62 -4 -19 -12
-47 -19 -82 -19 -37 0 -65 -7 -92 -22 -34 -20 -43 -21 -70 -11 -29 11 -37 9
-86 -19 -39 -22 -63 -29 -86 -26 -22 4 -48 -4 -86 -23 -34 -19 -69 -29 -96
-29 -32 0 -55 -9 -101 -41 -54 -36 -64 -40 -102 -34 -35 5 -45 2 -65 -18 -52
-54 -94 -77 -139 -77 -49 0 -68 -10 -143 -78 -67 -59 -120 -86 -145 -72 -29
15 -31 14 -92 -43 -268 -252 -354 -323 -399 -333 -56 -13 -86 -31 -139 -83
-43 -43 -59 -67 -69 -105 -18 -69 -84 -151 -309 -385 -73 -76 -89 -99 -82
-113 5 -9 9 -25 9 -35 0 -17 -72 -114 -132 -177 -26 -27 -34 -53 -29 -100 2
-22 -17 -52 -72 -118 -33 -39 -38 -50 -27 -62 16 -20 -2 -75 -38 -117 -18 -22
-28 -50 -34 -90 -4 -33 -18 -76 -32 -98 -19 -29 -23 -47 -19 -77 4 -33 -1 -47
-32 -94 -30 -44 -35 -58 -26 -72 16 -26 13 -53 -9 -90 -13 -22 -20 -51 -20
-84 0 -42 -6 -58 -30 -89 -38 -47 -60 -64 -85 -65 -12 0 -104 85 -251 231
-128 127 -237 230 -242 228 -6 -2 -200 -191 -432 -419 -232 -228 -425 -417
-429 -420 -3 -3 -17 -17 -30 -32 -21 -24 -22 -28 -8 -48 8 -12 264 -272 568
-579 305 -307 644 -650 753 -762 109 -112 431 -438 715 -724 284 -286 633
-640 775 -785 142 -146 507 -515 810 -821 303 -306 695 -703 870 -883 176
-180 323 -325 328 -324 4 2 96 90 205 197 484 476 668 658 691 684 l25 28
-225 227 c-124 125 -228 238 -232 250 -6 17 -1 32 19 58 39 51 66 65 127 65
38 1 65 8 96 25 40 24 44 24 73 10 29 -15 33 -14 58 5 42 34 91 50 128 43 24
-5 39 -2 51 9 31 28 91 48 125 42 25 -5 38 -1 57 15 54 47 90 63 129 56 34 -5
43 -2 82 33 60 52 85 64 123 57 34 -7 59 8 186 112 57 46 95 61 113 43 17 -17
25 -14 61 22 258 251 403 367 461 367 43 0 165 120 165 163 0 49 90 165 285
364 114 116 115 119 109 156 -7 45 15 84 102 178 53 57 61 78 55 140 -1 8 23
46 52 83 51 63 54 70 44 97 -12 32 3 68 48 119 16 18 24 41 27 80 3 38 13 68
32 97 22 32 26 49 21 72 -6 30 9 70 48 122 18 25 18 28 2 53 -16 25 -16 27 9
70 18 31 26 59 26 93 0 29 8 63 20 85 18 35 19 39 3 65 -15 26 -14 30 5 62 19
32 19 36 5 58 -15 23 -15 27 1 58 16 29 16 38 5 69 -11 31 -11 38 6 56 17 18
17 25 6 55 -10 28 -10 42 0 69 10 27 10 40 0 63 -9 23 -9 35 0 56 9 21 9 33 1
52 -15 33 -15 60 0 85 10 15 9 22 -5 38 -19 21 -22 54 -6 83 8 16 7 26 -5 44
-20 30 -20 55 -2 80 12 17 12 23 -5 46 -13 19 -19 44 -19 84 0 43 -6 67 -26
100 -23 41 -24 46 -11 72 14 25 13 30 -6 57 -29 42 -46 97 -37 121 6 16 0 34
-23 71 -23 37 -31 61 -32 100 -1 42 -7 58 -39 100 -34 43 -37 54 -32 90 5 38
1 46 -44 103 -44 55 -50 68 -50 109 0 50 -9 69 -66 130 -19 20 -48 58 -65 84
-28 42 -30 51 -20 79 10 30 9 33 -114 162 -192 204 -264 301 -280 381 -4 17
-32 54 -71 92 -54 53 -71 64 -98 64 -45 0 -163 92 -345 268 -122 118 -137 129
-158 121 -13 -5 -30 -9 -37 -9 -14 0 -102 66 -156 117 -36 34 -92 59 -109 49
-16 -10 -63 14 -117 60 -47 39 -55 43 -77 33 -20 -9 -32 -7 -68 11 -24 12 -54
32 -67 43 -16 15 -37 21 -71 22 -36 1 -61 9 -91 29 -31 21 -50 26 -71 22 -32
-6 -80 11 -122 44 -24 19 -32 21 -53 11 -35 -16 -58 -14 -85 8 -15 11 -48 20
-86 24 -34 3 -74 12 -90 22 -25 15 -31 15 -58 1 -27 -14 -31 -14 -61 5 -27 16
-36 18 -58 8 -20 -10 -35 -9 -65 1 -27 9 -47 10 -67 3 -22 -7 -37 -6 -61 5
-26 12 -38 13 -58 4 -16 -8 -33 -9 -43 -3 -20 10 -159 8 -214 -3 -21 -5 -44
-4 -54 2 -13 7 -27 5 -52 -6 -31 -15 -36 -15 -62 0 -26 15 -29 14 -60 -5z"/>
<path d="M10981 13376 c-54 -45 -117 -71 -144 -60 -13 5 -123 -78 -162 -121
-24 -27 -69 -47 -94 -42 -34 7 -75 -13 -131 -64 -59 -54 -89 -69 -150 -72 -40
-3 -57 -10 -83 -34 -17 -16 -47 -40 -66 -53 -33 -23 -35 -23 -64 -7 l-29 17
-60 -50 c-54 -45 -65 -50 -109 -50 -40 0 -60 -7 -104 -36 -40 -27 -69 -38
-114 -43 -33 -4 -68 -14 -78 -23 -24 -21 -99 -41 -124 -33 -13 5 -31 -2 -54
-19 -35 -27 -73 -34 -91 -16 -8 8 -27 0 -65 -25 -60 -39 -75 -42 -106 -20 -20
14 -25 13 -68 -17 -38 -27 -56 -33 -99 -33 -29 0 -59 -5 -67 -11 -27 -21 -49
-23 -78 -6 -27 15 -31 15 -48 0 -39 -34 -85 -50 -125 -44 -27 5 -46 2 -61 -9
-26 -18 -51 -19 -77 -3 -16 10 -25 9 -49 -5 -17 -10 -50 -17 -81 -17 -30 0
-72 -9 -101 -21 -43 -19 -53 -20 -74 -9 -21 11 -30 11 -60 -6 -34 -18 -37 -18
-66 -2 -29 17 -31 17 -58 -3 -27 -20 -30 -20 -60 -5 -28 15 -34 15 -61 1 -16
-8 -62 -17 -101 -19 -38 -2 -75 -8 -82 -15 -14 -14 -52 -14 -78 -1 -14 8 -25
7 -41 -5 -27 -18 -52 -19 -77 -3 -15 9 -26 8 -55 -6 -32 -15 -38 -15 -65 -1
-28 14 -33 14 -62 -4 -29 -18 -35 -18 -61 -5 -27 14 -31 13 -61 -8 -18 -12
-36 -28 -42 -34 -28 -33 -100 -72 -142 -79 -60 -9 -61 -10 -208 -155 l-123
-121 25 -27 c41 -44 553 -564 1057 -1072 752 -759 1006 -1019 1006 -1030 0 -6
6 -10 14 -10 8 0 16 -4 18 -10 2 -5 233 -241 513 -523 281 -283 620 -626 754
-763 134 -137 456 -463 715 -725 259 -261 588 -594 730 -740 509 -519 979
-989 989 -989 5 0 70 61 143 134 132 133 134 136 134 180 0 40 7 53 61 123 34
43 67 84 72 91 7 9 6 17 -1 24 -17 17 -15 54 4 83 14 21 14 26 -1 55 -15 29
-15 33 1 57 14 22 15 32 5 65 -10 32 -9 43 5 67 15 25 15 34 5 59 -11 25 -10
35 3 60 9 18 16 56 16 88 0 39 7 68 22 95 20 36 20 40 5 57 -21 23 -21 41 0
71 13 20 14 29 4 57 -10 28 -9 39 5 69 13 29 14 40 4 64 -10 24 -8 34 9 67 14
25 21 57 21 92 0 39 6 61 22 83 21 29 22 30 4 59 -17 29 -17 31 3 63 15 25 19
43 14 71 -6 38 3 65 41 119 19 26 19 29 4 54 -15 25 -15 30 3 65 14 28 18 49
13 73 -5 28 0 44 26 87 30 48 32 55 20 86 -11 32 -10 37 19 78 25 36 31 54 31
98 0 39 6 60 21 80 15 19 20 36 16 59 -5 35 15 91 43 122 13 14 18 33 17 65
-1 35 5 56 28 94 52 85 55 90 55 132 0 40 9 56 81 145 17 22 19 30 10 47 -19
36 -13 54 41 115 45 52 52 66 55 110 3 55 24 95 78 147 44 42 65 87 58 124 -6
30 22 76 89 146 68 71 88 101 82 124 -7 31 21 91 68 142 41 44 41 44 22 66
-31 35 -157 163 -688 699 -275 278 -609 615 -740 750 -132 134 -462 469 -735
744 -273 275 -568 574 -655 663 -88 89 -162 162 -165 162 -3 -1 -30 -20 -60
-44z"/>
<path d="M5070 12091 c-32 -18 -37 -18 -62 -3 -26 15 -28 14 -77 -27 -102 -85
-142 -107 -172 -91 -14 8 -25 7 -40 -3 -11 -8 -247 -241 -525 -517 -474 -471
-505 -504 -499 -530 8 -37 -14 -79 -83 -158 l-55 -64 17 -29 c17 -28 17 -31
-2 -61 -18 -28 -18 -34 -6 -64 13 -30 12 -37 -2 -59 -15 -23 -15 -27 0 -50 20
-30 20 -55 2 -80 -12 -17 -8 -26 44 -88 72 -85 92 -124 79 -150 -14 -26 -7
-35 204 -251 l184 -189 -39 -39 c-21 -21 -43 -38 -49 -38 -5 0 -8 -4 -5 -9 3
-4 -6 -13 -19 -19 -14 -7 -25 -16 -25 -22 0 -5 -7 -10 -16 -10 -9 0 -18 -9
-21 -19 -3 -11 -11 -22 -18 -25 -7 -2 -19 -17 -27 -33 -8 -15 -25 -45 -37 -66
-12 -21 -18 -43 -15 -49 4 -7 2 -8 -4 -4 -7 4 -12 1 -12 -8 0 -9 -6 -16 -12
-16 -9 0 -8 -4 2 -10 13 -8 13 -10 -2 -10 -9 0 -20 -5 -24 -12 -4 -7 -3 -8 4
-4 7 4 12 2 12 -3 0 -6 -4 -11 -10 -11 -14 0 -12 -27 3 -34 6 -4 1 -4 -11 -2
-13 3 -21 2 -18 -1 3 -3 -1 -18 -10 -34 -8 -16 -14 -31 -13 -34 0 -4 -7 -18
-16 -32 -11 -17 -13 -23 -4 -17 20 12 40 14 33 3 -3 -5 -10 -7 -15 -4 -5 4 -9
1 -9 -4 0 -6 -8 -11 -17 -12 -16 0 -16 -1 1 -8 14 -5 16 -10 8 -15 -7 -4 -16
-5 -21 -2 -5 4 -8 -2 -6 -11 1 -10 -2 -23 -7 -30 -5 -7 -6 -18 -2 -24 5 -8 2
-11 -7 -7 -14 6 -17 -4 -19 -55 -1 -9 -5 -15 -10 -12 -6 3 -7 -1 -4 -10 4 -10
-1 -22 -15 -31 -17 -12 -19 -19 -11 -35 6 -11 16 -17 23 -13 7 4 8 3 4 -2 -5
-5 -16 -9 -24 -9 -19 0 -26 -34 -11 -52 8 -11 7 -12 -7 -7 -13 5 -16 4 -11 -4
4 -7 2 -12 -5 -12 -6 0 -9 -8 -6 -19 2 -10 0 -27 -6 -37 -6 -10 -12 -26 -13
-34 -2 -8 -4 -22 -7 -30 -17 -67 -28 -134 -23 -146 3 -8 2 -13 -3 -10 -5 3
-11 -3 -14 -14 -3 -11 0 -20 6 -20 8 0 8 -3 0 -8 -13 -8 -24 -57 -24 -99 1
-12 -4 -25 -10 -28 -7 -5 -6 -11 2 -21 7 -9 8 -14 1 -14 -6 0 -9 -19 -8 -45 1
-25 -1 -45 -6 -45 -4 0 -8 -5 -8 -11 0 -5 4 -8 9 -4 5 3 13 1 16 -5 4 -6 3
-10 -2 -9 -22 4 -24 -3 -8 -28 18 -27 18 -28 -1 -11 -18 16 -19 15 -20 -27 -1
-33 3 -45 15 -48 14 -4 14 -5 0 -6 -9 0 -19 -10 -22 -21 -3 -11 -2 -18 1 -16
4 2 13 -3 21 -11 12 -13 11 -14 -5 -9 -16 5 -19 1 -20 -27 -1 -17 -4 -39 -8
-48 -5 -10 1 -20 16 -28 13 -6 15 -9 6 -7 -10 3 -20 1 -23 -4 -4 -6 -2 -10 4
-10 5 0 9 -9 8 -19 0 -11 -5 -17 -9 -15 -5 3 -5 11 -2 17 4 7 3 8 -2 4 -4 -4
-9 -27 -11 -50 -1 -23 -3 -66 -5 -95 -4 -44 -2 -52 11 -47 11 3 10 0 -3 -10
-10 -8 -20 -25 -20 -37 -1 -13 -5 -28 -9 -35 -4 -6 -2 -15 4 -19 8 -4 7 -9 -2
-15 -10 -6 -11 -9 -1 -9 6 0 12 -5 12 -11 0 -5 -5 -7 -12 -3 -7 4 -8 3 -4 -5
4 -6 13 -8 19 -4 7 4 6 -1 -2 -11 -11 -13 -12 -19 -2 -29 10 -9 11 -8 6 8 -6
16 -5 17 4 5 17 -24 -7 -39 -25 -16 -8 11 -14 15 -14 10 0 -6 5 -15 12 -22 8
-8 8 -15 -1 -26 -8 -10 -9 -16 -1 -21 10 -6 11 -5 14 17 0 6 7 12 14 14 7 1 8
0 2 -3 -5 -2 -8 -8 -5 -13 3 -4 -2 -13 -10 -20 -8 -7 -15 -17 -15 -22 0 -6 7
-4 17 3 15 13 15 12 5 -6 -6 -12 -7 -27 -2 -36 6 -11 5 -16 -5 -16 -8 0 -11 5
-8 11 4 6 -1 5 -10 -3 -18 -15 -23 -26 -7 -16 14 9 12 -8 -2 -25 -7 -8 -2 -6
11 5 21 17 23 17 18 3 -3 -9 -1 -19 6 -22 9 -3 8 -5 -1 -5 -7 -1 -11 -5 -8 -9
2 -4 0 -14 -5 -22 -7 -11 -8 -8 -5 12 3 21 1 25 -11 21 -8 -3 -11 -9 -6 -12 4
-3 8 -15 7 -26 0 -11 3 -30 8 -43 7 -21 6 -23 -14 -17 -13 3 -18 3 -12 -2 6
-4 10 -16 8 -26 -1 -9 2 -15 7 -11 5 3 7 9 5 13 -3 4 1 8 9 8 12 0 12 -3 2
-16 -6 -9 -19 -22 -27 -29 -13 -10 -13 -11 1 -6 20 6 34 -11 18 -22 -8 -4 -9
-3 -5 4 5 8 1 10 -10 5 -11 -4 -13 -8 -6 -11 16 -5 15 -22 0 -18 -7 1 -10 1
-5 -1 4 -3 4 -10 1 -15 -4 -6 -2 -8 3 -5 6 4 18 -2 28 -13 10 -12 13 -20 7
-20 -7 0 -12 5 -12 10 0 6 -6 10 -14 10 -11 0 -13 -11 -11 -40 2 -23 -1 -40
-7 -40 -7 0 -7 -4 0 -12 11 -14 10 -47 -2 -66 -4 -6 -3 -12 3 -12 5 0 15 8 20
18 6 9 11 12 11 6 0 -6 -7 -17 -15 -24 -9 -7 -14 -19 -11 -27 3 -7 0 -13 -7
-13 -8 0 -7 -4 3 -9 8 -6 17 -8 21 -5 10 5 5 -23 -5 -33 -4 -4 -6 -2 -4 6 2 7
-1 15 -7 17 -13 5 -13 -116 -1 -135 6 -10 6 -12 -2 -7 -11 6 -18 -35 -13 -67
1 -4 -3 -16 -9 -27 -7 -13 -7 -21 0 -25 7 -4 7 -11 2 -18 -5 -7 -8 -29 -8 -50
1 -20 -3 -37 -8 -37 -6 0 -5 -5 2 -12 7 -7 12 -17 12 -23 0 -5 -4 -4 -9 3 -6
10 -10 9 -14 -7 -3 -12 0 -21 6 -21 7 0 5 -5 -3 -10 -11 -7 -12 -10 -2 -10 10
0 10 -4 -2 -16 -12 -11 -13 -20 -6 -34 6 -12 6 -21 1 -25 -6 -3 -8 -14 -6 -25
2 -11 0 -22 -6 -25 -14 -9 -11 -47 4 -40 6 4 4 0 -5 -8 -12 -9 -17 -24 -14
-45 2 -20 0 -29 -7 -25 -6 4 -8 0 -4 -10 4 -10 1 -17 -6 -18 -7 0 -3 -4 8 -9
l20 -9 -20 0 c-17 -1 -17 -3 -5 -11 11 -7 11 -10 2 -10 -7 0 -10 -4 -7 -10 3
-6 0 -10 -7 -10 -10 0 -10 -2 1 -9 9 -6 10 -11 2 -15 -6 -4 -11 -12 -11 -18 0
-6 5 -7 13 -2 7 5 5 2 -5 -8 -19 -17 -25 -33 -9 -24 5 4 7 -3 4 -14 -3 -11 -8
-20 -12 -20 -4 0 -8 -12 -9 -27 -1 -27 -8 -68 -13 -68 -1 0 -2 -12 -3 -26 -1
-15 -8 -35 -16 -45 -14 -16 -13 -17 5 -11 20 7 20 7 1 -8 -14 -11 -16 -15 -5
-15 10 -1 9 -5 -5 -15 -14 -11 -16 -15 -5 -15 12 0 12 -2 0 -9 -7 -5 -14 -25
-15 -44 0 -19 -4 -33 -8 -30 -7 4 -13 -28 -9 -49 0 -5 -5 -8 -11 -8 -9 0 -8
-4 2 -10 12 -7 12 -10 1 -10 -7 0 -11 -6 -7 -15 3 -8 1 -15 -5 -15 -6 0 -9 -7
-5 -15 3 -8 0 -15 -5 -15 -7 0 -9 -11 -7 -25 3 -13 1 -22 -3 -19 -8 5 -13 -10
-10 -30 1 -4 -5 -18 -13 -31 -11 -17 -12 -25 -3 -35 9 -10 9 -11 0 -6 -14 7
-28 -47 -17 -65 4 -7 3 -9 -3 -6 -6 4 -16 -6 -22 -23 -5 -17 -8 -30 -6 -30 2
0 -4 -20 -15 -45 -11 -25 -19 -46 -19 -48 0 -3 -8 -28 -17 -52 -4 -11 -8 -22
-9 -25 -4 -18 -29 -90 -40 -115 -25 -60 -49 -130 -47 -137 1 -5 -2 -8 -8 -8
-5 0 -10 -6 -10 -14 0 -13 -26 -74 -81 -191 -12 -27 -24 -52 -24 -55 -6 -24
-80 -160 -87 -160 -5 0 -6 -5 -3 -10 4 -6 2 -16 -3 -23 -6 -7 -32 -53 -58
-102 -25 -50 -52 -97 -58 -105 -6 -8 -20 -31 -30 -50 -11 -19 -22 -37 -25 -40
-3 -3 -15 -21 -25 -40 -11 -19 -25 -40 -30 -46 -6 -6 -18 -22 -26 -35 -8 -13
-27 -36 -42 -51 -14 -15 -24 -28 -21 -28 3 0 -2 -9 -12 -20 -18 -20 -18 -21 1
-14 10 4 29 14 42 22 12 8 22 10 22 6 0 -5 4 -4 8 3 9 14 201 113 219 113 7 0
21 4 31 10 9 5 34 16 54 25 21 8 53 21 70 29 18 8 39 16 47 18 8 2 23 9 32 17
10 8 25 16 33 17 8 1 45 14 82 29 38 15 73 28 79 30 5 1 17 5 25 8 51 21 174
49 213 48 9 0 17 5 17 10 0 6 6 7 17 1 9 -6 29 -6 45 -2 17 5 28 5 28 -1 0 -6
7 -6 19 0 10 6 21 8 24 5 2 -3 41 -7 85 -10 44 -2 101 -9 128 -14 27 -6 63
-13 79 -16 28 -5 104 -25 235 -61 137 -38 231 -55 315 -57 22 -1 43 -5 47 -11
5 -6 8 -5 8 2 0 7 7 10 17 6 10 -4 14 -2 10 4 -4 6 3 8 19 5 16 -3 30 1 35 9
7 12 9 12 9 0 0 -11 4 -10 16 5 8 10 13 14 10 8 -7 -15 21 -27 30 -13 4 6 12
5 22 -3 12 -10 14 -10 8 0 -4 7 -1 12 8 12 9 0 16 8 17 18 0 14 2 14 8 -3 5
-11 7 -23 4 -27 -2 -5 1 -8 7 -8 7 0 9 9 5 23 -5 18 -4 19 4 6 9 -13 18 -15
46 -9 28 6 34 5 26 -4 -8 -10 -5 -12 12 -10 12 1 22 3 22 4 0 0 23 3 50 5 77
6 125 14 146 25 10 6 19 9 19 6 0 -2 23 2 50 9 28 7 50 11 50 8 0 -3 6 -1 13
5 14 11 126 47 145 45 6 0 12 3 12 8 0 5 7 9 15 9 9 0 27 7 40 16 14 9 25 14
25 10 0 -3 29 10 65 29 36 20 65 33 65 31 0 -3 28 11 63 31 34 19 85 48 113
64 29 15 103 62 165 103 103 69 115 75 133 62 32 -21 32 -71 1 -116 -32 -46
-139 -147 -275 -261 -141 -117 -289 -264 -360 -358 -14 -18 -30 -38 -37 -45
-22 -25 -139 -202 -163 -248 -14 -27 -28 -48 -32 -48 -5 0 -8 -9 -8 -20 0 -11
-4 -20 -10 -20 -5 0 -10 -8 -10 -17 0 -10 -9 -29 -20 -43 -11 -14 -20 -30 -20
-36 0 -6 -11 -33 -25 -60 -14 -27 -25 -53 -25 -57 0 -5 -11 -32 -24 -61 -13
-29 -30 -71 -37 -94 -7 -23 -16 -42 -21 -42 -5 0 -6 -4 -3 -10 3 -5 1 -19 -5
-31 -6 -11 -18 -45 -26 -75 -8 -30 -21 -80 -29 -112 -14 -51 -44 -215 -60
-327 -4 -22 -8 -51 -11 -65 -3 -14 -7 -34 -8 -45 -2 -11 -7 -38 -11 -59 -4
-22 -11 -50 -16 -63 -5 -13 -8 -27 -8 -31 4 -20 -15 -71 -24 -65 -6 3 -7 1 -3
-5 4 -6 0 -27 -8 -47 -8 -19 -16 -39 -17 -43 -4 -19 -20 -59 -31 -77 -6 -11
-22 -41 -36 -67 -13 -25 -33 -56 -43 -67 -11 -12 -17 -21 -13 -21 3 0 -11 -21
-32 -48 -21 -26 -42 -51 -46 -57 -4 -5 -23 -28 -43 -50 -19 -22 -35 -44 -35
-48 0 -5 -4 -5 -10 -2 -5 3 -10 2 -10 -2 0 -5 -33 -43 -72 -84 -40 -42 -81
-91 -91 -108 l-19 -32 39 19 c21 11 42 20 46 21 4 0 15 7 23 16 9 8 21 15 28
15 8 0 19 7 26 15 7 8 16 12 21 9 5 -3 9 -2 9 3 0 4 33 24 73 43 39 19 74 38
77 42 3 3 19 10 35 13 17 4 39 13 50 19 11 7 40 20 65 29 25 9 59 22 75 28 17
7 32 13 35 14 3 1 14 5 25 10 60 25 122 47 139 51 10 2 24 8 32 15 8 6 14 9
14 6 0 -3 16 1 35 9 19 8 35 11 35 8 0 -4 6 -1 14 5 8 6 28 13 45 14 17 1 31
5 31 8 0 3 6 6 13 7 22 1 152 36 157 41 3 4 14 7 25 7 11 1 49 9 85 19 36 10
70 18 75 19 6 1 15 4 20 7 12 7 96 29 125 32 8 1 18 6 21 10 3 5 22 9 42 10
20 1 37 4 37 7 0 7 91 34 103 31 4 0 20 5 36 14 16 8 31 11 34 8 4 -3 13 -1
21 6 8 6 18 11 22 9 5 -1 34 6 64 16 30 10 62 20 70 21 29 6 285 97 311 111
15 7 29 10 33 7 3 -4 6 -1 6 5 0 7 3 11 8 11 4 -1 10 0 15 1 4 1 10 3 15 4 4
1 24 10 46 19 21 9 42 17 47 17 10 0 22 6 79 36 19 10 37 18 40 17 3 -1 19 4
35 11 17 7 47 18 67 25 21 7 40 17 43 22 4 5 13 9 22 9 8 0 29 6 46 14 120 54
197 88 207 91 14 4 150 73 183 92 20 13 37 21 37 17 0 -3 7 2 16 10 8 9 22 16
30 16 8 0 14 4 14 8 0 5 25 22 55 37 30 16 55 33 55 37 0 4 4 8 9 8 5 0 42 23
83 50 40 28 82 56 92 63 10 6 32 23 47 35 16 13 29 21 29 18 0 -3 8 2 18 12
11 9 31 26 46 36 15 11 36 27 46 35 10 9 42 36 70 61 29 25 61 50 72 56 10 5
16 13 13 16 -4 3 3 9 14 13 12 3 19 11 16 16 -4 5 -2 9 4 9 5 0 42 31 83 70
40 38 76 70 81 70 4 0 7 7 7 16 0 8 5 12 10 9 6 -3 13 1 16 9 3 8 14 18 25 21
10 4 18 12 16 18 -1 7 4 11 11 9 11 -2 16 11 13 31 -1 5 3 6 9 2 5 -3 26 10
45 30 20 19 37 35 39 35 9 0 91 86 88 93 -1 5 1 6 6 3 5 -3 41 26 80 64 40 39
72 67 72 63 0 -4 8 4 17 17 10 14 17 29 15 33 -1 5 1 6 6 3 11 -6 22 2 55 42
15 19 27 30 27 26 0 -4 13 9 29 29 15 20 31 34 35 30 3 -3 6 -1 6 5 0 6 18 29
40 51 22 22 40 45 40 51 0 6 5 8 10 5 6 -3 10 -3 10 2 0 4 15 24 33 45 17 20
46 53 62 74 17 21 42 51 58 66 15 16 27 33 27 38 0 5 15 21 33 37 18 15 39 40
46 55 8 16 20 28 28 28 7 0 12 4 11 8 -3 8 20 35 99 118 17 19 30 34 28 34 -2
0 11 15 28 34 l32 34 25 -26 c14 -15 35 -40 48 -57 90 -121 246 -285 361 -381
51 -43 348 -341 408 -409 80 -92 143 -176 143 -191 0 -8 4 -14 9 -14 5 0 13
-13 19 -28 5 -15 62 -80 126 -145 89 -89 124 -117 144 -118 15 -1 37 -2 48 -2
12 -1 59 -33 105 -71 l83 -69 29 16 c27 16 31 16 58 0 24 -14 34 -15 62 -5 26
9 40 9 65 0 26 -10 37 -10 52 0 24 15 66 16 75 2 12 -20 38 -9 96 43 79 69
116 89 156 81 31 -6 42 4 345 304 172 170 376 369 452 443 76 74 157 154 180
178 23 24 51 53 64 65 18 16 21 26 16 53 -8 43 10 75 103 181 37 42 39 49 18
78 -12 19 -12 25 4 55 16 29 16 38 5 64 -11 26 -10 36 3 63 14 30 14 34 -1 51
-19 21 -20 41 -5 75 11 22 6 32 -55 107 -60 76 -66 87 -66 131 l0 47 -162 167
c-195 198 -479 486 -1083 1096 -247 250 -574 581 -725 736 -151 154 -482 489
-735 744 -253 255 -673 680 -932 944 -881 893 -1112 1128 -1727 1749 -337 341
-728 737 -867 879 -140 143 -347 353 -460 468 -204 205 -207 208 -247 206 -47
-1 -70 12 -160 90 -62 55 -64 55 -90 40 -29 -17 -47 -14 -75 10 -15 14 -20 13
-51 -3 -32 -17 -36 -18 -60 -2 -30 20 -23 20 -66 -2z m-1313 -2886 c0 -8 -4
-12 -9 -9 -5 3 -6 10 -3 15 9 13 12 11 12 -6z m-26 -28 c-6 -8 -8 -16 -5 -19
3 -3 1 -9 -4 -12 -6 -3 -9 0 -8 6 2 16 15 38 23 38 3 0 0 -6 -6 -13z m1007
-96 c12 -7 20 -16 17 -22 -4 -5 -1 -9 5 -9 6 0 8 -5 4 -11 -5 -8 -9 -8 -14 1
-5 8 -9 7 -14 -5 -3 -9 -4 -21 0 -26 13 -21 -4 -7 -24 21 -18 23 -19 28 -5 23
11 -4 14 -3 9 5 -4 7 -2 12 6 12 10 0 9 3 -2 10 -9 6 -17 5 -22 -3 -9 -15 -10
-5 -2 18 4 9 10 12 13 7 3 -5 16 -14 29 -21z m-1048 -55 c0 -3 -4 -8 -10 -11
-5 -3 -10 -1 -10 4 0 6 5 11 10 11 6 0 10 -2 10 -4z m1018 -27 c-3 -8 -7 -3
-11 10 -4 17 -3 21 5 13 5 -5 8 -16 6 -23z m-1038 -12 c0 -2 -10 -12 -21 -23
-22 -19 -22 -19 -8 4 12 19 29 30 29 19z m-58 -104 c-6 -2 -9 -10 -6 -15 4 -7
2 -8 -5 -4 -13 9 -5 26 12 25 9 0 8 -2 -1 -6z m-169 -966 c3 -8 -1 -14 -8 -14
-7 0 -11 6 -8 14 3 7 6 13 8 13 2 0 5 -6 8 -13z m-16 -114 c-4 -3 -1 -13 6
-22 11 -14 10 -14 -5 -2 -21 15 -23 31 -6 31 6 0 8 -3 5 -7z m-9 -65 c-2 -7 4
-12 12 -10 12 2 11 -1 -2 -11 -10 -8 -14 -18 -10 -22 4 -5 2 -5 -4 -2 -8 5
-11 36 -5 55 3 8 11 0 9 -10z m2 -118 c0 -5 -8 -10 -17 -10 -15 0 -16 2 -3 10
19 12 20 12 20 0z m-5 -30 c3 -6 -1 -7 -9 -4 -18 7 -21 14 -7 14 6 0 13 -4 16
-10z m-12 -36 c1 -10 7 -26 12 -34 8 -13 7 -13 -8 -1 -9 7 -15 17 -12 21 3 5
1 11 -5 15 -6 4 -8 11 -4 16 8 13 13 8 17 -17z m-3 -349 c0 -12 -19 -12 -23 0
-4 9 -1 12 9 8 7 -3 14 -7 14 -8z m-15 -145 c-3 -5 -11 -10 -16 -10 -6 0 -7 5
-4 10 3 6 11 10 16 10 6 0 7 -4 4 -10z m-8 -96 c-3 -3 -12 -4 -19 -1 -8 3 -5
6 6 6 11 1 17 -2 13 -5z m-2 -24 c3 -6 -1 -7 -9 -4 -18 7 -21 14 -7 14 6 0 13
-4 16 -10z m-25 -374 c0 -2 -8 -10 -17 -17 -16 -13 -17 -12 -4 4 13 16 21 21
21 13z m1132 -2538 c-7 -7 -12 -8 -12 -2 0 6 3 14 7 17 3 4 9 5 12 2 2 -3 -1
-11 -7 -17z m-72 2 c0 -5 -2 -10 -4 -10 -3 0 -8 5 -11 10 -3 6 -1 10 4 10 6 0
11 -4 11 -10z"/>
<path d="M4726 9054 c-9 -24 -2 -26 12 -4 7 11 8 20 3 20 -5 0 -12 -7 -15 -16z"/>
<path d="M10506 2958 c3 -5 10 -6 15 -3 13 9 11 12 -6 12 -8 0 -12 -4 -9 -9z"/>
</g>
</svg>
